<?xml version="1.0" encoding="UTF-8"?>
<svg width="691px" height="200px" viewBox="0 0 691 200" version="1.1" xmlns="http://www.w3.org/2000/svg" xmlns:xlink="http://www.w3.org/1999/xlink">
    <title>Fides Lang</title>
    <g id="fideslang-container" stroke="none" stroke-width="1" fill="none" fill-rule="evenodd">
        <g id="fideslang" transform="translate(-167.000000, -284.000000)" fill="#FFFFFF">
            <g id="Group-18" transform="translate(166.999800, 284.000000)">
                <path d="M690.1392,0 L690.1392,199.402 L356.8992,199.402 L356.8992,0 L690.1392,0 Z M621.8335,63.2342 C617.3795,63.2342 613.0925,63.8472 608.9755,65.0712 C604.8555,66.2972 601.2105,68.1602 598.0385,70.6642 C594.8655,73.1692 592.3315,76.2872 590.4395,80.0162 C588.5455,83.7472 587.6015,88.1152 587.6015,93.1242 C587.6015,98.0242 588.7415,102.3372 591.0245,106.0652 C593.3045,109.7972 595.8925,112.6612 598.7895,114.6652 L598.7895,114.6652 L598.7895,115.3332 C596.1175,117.2272 593.8895,119.5362 592.1095,122.2632 C590.3285,124.9922 589.4385,127.8572 589.4385,130.8632 C589.4385,134.3152 590.1605,137.1542 591.6085,139.3792 C593.0545,141.6072 594.8915,143.4442 597.1195,144.8902 L597.1195,144.8902 L597.1195,145.5582 C589.2135,150.0092 585.2635,155.5772 585.2635,162.2562 C585.2635,165.9302 586.1535,169.1032 587.9355,171.7742 C589.7145,174.4462 592.1935,176.6172 595.3665,178.2872 C598.5385,179.9572 602.2125,181.2092 606.3875,182.0442 C610.5615,182.8792 615.0965,183.2962 619.9965,183.2962 C627.1195,183.2962 633.5225,182.5452 639.2005,181.0422 C644.8775,179.5392 649.7195,177.4782 653.7275,174.8642 C657.7355,172.2472 660.8245,169.1292 662.9955,165.5122 C665.1665,161.8932 666.2515,157.9152 666.2515,153.5732 C666.2515,146.1162 663.5505,140.7442 658.1525,137.4592 C652.7515,134.1762 644.9325,132.5332 634.6915,132.5332 L634.6915,132.5332 L621.3325,132.5332 C616.6565,132.5332 613.4005,132.0322 611.5635,131.0302 C609.7265,130.0282 608.8085,128.4702 608.8085,126.3542 C608.8085,124.9092 609.0305,123.7402 609.4765,122.8482 C609.9205,121.9582 610.7005,121.0682 611.8145,120.1762 C615.2635,121.2902 618.6035,121.8462 621.8335,121.8462 C626.3965,121.8462 630.6545,121.2902 634.6075,120.1762 C638.5575,119.0642 642.0095,117.3662 644.9615,115.0832 C647.9085,112.8022 650.2205,109.9062 651.8905,106.3992 C653.5605,102.8932 654.3955,98.7472 654.3955,93.9592 C654.3955,91.7332 654.1445,89.6752 653.6445,87.7812 C653.1425,85.8892 652.5015,84.3312 651.7235,83.1052 L651.7235,83.1052 L664.9155,83.1052 L664.9155,65.2372 L634.6915,65.2372 C631.0175,63.9022 626.7305,63.2342 621.8335,63.2342 Z M609.9775,150.2332 C611.3125,150.5672 612.8705,150.8172 614.6535,150.9852 C616.4325,151.1512 618.7705,151.2352 621.6665,151.2352 L621.6665,151.2352 L630.1825,151.2352 C634.2995,151.2352 637.4465,151.6792 639.6175,152.5712 C641.7875,153.4612 642.8735,155.1852 642.8735,157.7472 C642.8735,160.6412 641.0915,163.0622 637.5295,165.0112 C633.9655,166.9582 629.4025,167.9342 623.8375,167.9342 C618.2685,167.9342 613.8185,167.1252 610.4785,165.5122 C607.1385,163.8972 605.4685,161.5312 605.4685,158.4152 C605.4685,155.6322 606.9715,152.9052 609.9775,150.2332 Z M403.3782,31.0078 L378.7352,31.0078 L378.7352,128.1398 C378.7352,145.3838 389.2742,150.2438 403.9982,150.2438 C410.8182,150.2438 415.6222,149.6168 417.7922,148.9898 L417.7922,148.9898 L417.7922,130.3348 C416.8622,130.3348 414.3822,130.4918 412.2122,130.4918 C406.7882,130.4918 403.3782,128.9238 403.3782,122.6528 L403.3782,122.6528 L403.3782,31.0078 Z M462.9252,63.2339 C456.3552,63.2339 450.1512,64.2359 444.3062,66.2399 C438.4612,68.2439 432.8682,70.8599 427.5242,74.0879 L427.5242,74.0879 L436.3742,90.2859 C440.3812,87.9479 444.1392,86.1109 447.6452,84.7749 C451.1522,83.4389 454.6852,82.7709 458.2492,82.7709 C462.8132,82.7709 466.0692,83.8569 468.0182,86.0279 C469.9642,88.1979 471.0502,91.1209 471.2742,94.7939 C454.9092,96.4639 443.0532,99.7489 435.7062,104.6459 C428.3592,109.5459 424.6852,116.3349 424.6852,125.0189 C424.6852,128.5829 425.2692,131.8649 426.4382,134.8709 C427.6072,137.8759 429.2482,140.5219 431.3652,142.8029 C433.4782,145.0859 436.0662,146.8679 439.1292,148.1459 C442.1902,149.4239 445.6132,150.0659 449.3992,150.0659 C454.0742,150.0659 458.3592,149.0899 462.2572,147.1439 C466.1522,145.1979 467.9942,142.6639 471.5582,139.5469 L471.5582,139.5469 L471.5582,148.0629 L495.8212,148.0629 L495.8212,100.6389 C495.8212,87.8379 493.0082,78.4039 487.3882,72.3349 C481.7652,66.2679 473.6122,63.2339 462.9252,63.2339 Z M554.3258,63.2335 C548.6478,63.2335 543.6938,64.4865 539.4638,66.9915 C535.2318,69.4965 533.4828,72.4185 529.9218,75.7575 L529.9218,75.7575 L529.9218,65.2375 L505.3988,65.2375 L505.3988,148.0625 L529.9458,148.0625 L529.9458,92.1225 C532.6178,89.5625 535.0648,87.5875 537.2928,86.1945 C539.5188,84.8035 542.1908,84.1075 545.3078,84.1075 C548.8698,84.1075 551.4578,85.2215 553.0728,87.4465 C554.6858,89.6745 555.4948,93.7925 555.4948,99.8035 L555.4948,99.8035 L555.4948,148.0625 L580.0408,148.0625 L580.0408,96.6305 C580.0408,86.1685 578.0088,77.9865 573.9458,72.0835 C569.8818,66.1845 563.3428,63.2335 554.3258,63.2335 Z M471.2742,109.4889 L471.2742,124.0169 C469.0462,126.2449 466.9322,127.9699 464.9282,129.1929 C462.9252,130.4199 460.5302,131.0299 457.7482,131.0299 C454.8522,131.0299 452.5432,130.3909 450.8182,129.1099 C449.0912,127.8309 448.2302,125.8539 448.2302,123.1819 C448.2302,119.9539 449.9002,117.1699 453.2402,114.8319 C456.5792,112.4949 462.5912,110.7149 471.2742,109.4889 L471.2742,109.4889 Z M621.8335,79.7652 C625.0605,79.7652 627.7615,80.9082 629.9325,83.1892 C632.1025,85.4722 633.1885,88.7822 633.1885,93.1242 C633.1885,97.8002 632.1025,101.2802 629.9325,103.5612 C627.7615,105.8442 625.0605,106.9842 621.8335,106.9842 C618.6035,106.9842 615.9055,105.8442 613.7345,103.5612 C611.5635,101.2802 610.4785,97.8002 610.4785,93.1242 C610.4785,88.6732 611.5635,85.3332 613.7345,83.1052 C615.9055,80.8792 618.6035,79.7652 621.8335,79.7652 Z" id="Fill-3"></path>
                <g id="Group-17" transform="translate(0.000000, 27.486900)">
                    <path d="M51.754,19.519 C54.523,19.519 57.631,20.198 60.455,21.338 L64.934,2.986 C61.215,1.574 55.202,0 48.184,0 C25.516,0 17.304,14.565 17.304,32.278 L17.304,36.636 L0,36.636 L0,56.155 L17.304,56.155 L17.304,120.603 L42.171,120.603 L42.171,56.155 L59.97,56.155 L59.97,36.636 L42.171,36.636 L42.171,31.559 C42.171,22.858 45.686,19.519 51.754,19.519" id="Fill-2"></path>
                    <path d="M158.8974,94.7588 L158.8974,60.2808 C154.4994,56.3308 149.5584,54.9608 144.9974,54.9608 C136.9354,54.9608 129.8764,62.3988 129.8764,78.3748 C129.8764,94.8538 135.5644,102.2788 145.2014,102.2788 C150.4954,102.2788 154.7714,100.2698 158.8974,94.7588 M158.8974,2.0358 L183.7644,2.0358 L183.7644,120.6038 L158.8974,120.6038 L158.8974,112.2828 C152.9524,118.2148 146.8304,122.6398 138.7264,122.6398 C117.8504,122.6398 104.3714,106.0658 104.3714,78.6468 C104.3714,51.1868 121.5154,34.5998 139.2014,34.5998 C148.4594,34.5998 153.2234,38.0478 158.8974,43.3678" id="Fill-5"></path>
                    <path d="M274.5065,110.9116 L285.6915,95.4106 C293.3065,101.1656 300.3235,104.2336 307.3555,104.2336 C314.7665,104.2336 317.9695,101.4096 317.9695,97.0116 C317.9695,91.4736 309.6355,88.9626 301.0025,85.5826 C290.7135,81.5926 278.7825,74.7646 278.7825,60.8916 C278.7825,45.2546 291.4875,34.5996 310.8575,34.5996 C323.7255,34.5996 333.3085,39.7986 340.4615,45.2416 L329.3175,60.1726 C323.3455,55.8426 317.4545,53.0056 311.6445,53.0056 C305.2105,53.0056 302.0475,55.5306 302.0475,59.7106 C302.0475,65.0726 309.9075,67.1226 318.6075,70.2856 C329.2495,74.2216 341.2355,80.1936 341.2355,95.5456 C341.2355,110.7486 329.2365,122.6396 306.7445,122.6396 C295.6685,122.6396 283.0035,117.8346 274.5065,110.9116" id="Fill-7"></path>
                    <polygon id="Fill-9" points="70.0402 120.6031 94.9212 120.6031 94.9212 36.6351 70.0402 36.6351"></polygon>
                    <path d="M95.0552,13.1249 C95.0552,20.0359 89.4532,25.6379 82.5422,25.6379 C75.6312,25.6379 70.0292,20.0359 70.0292,13.1249 C70.0292,6.2139 75.6312,0.6119 82.5422,0.6119 C89.4532,0.6119 95.0552,6.2139 95.0552,13.1249" id="Fill-11"></path>
                    <path d="M220.1912,68.8204 L244.8472,68.8204 C244.8472,65.5664 244.0402,62.7334 242.4312,60.3184 C240.8202,57.9054 237.8502,56.6984 233.5192,56.6984 C230.2962,56.6984 227.4932,57.6534 225.1052,59.5604 C222.7162,61.4704 221.0792,64.5564 220.1912,68.8204 M235.8512,123.0334 C229.7422,123.0334 224.0772,122.0494 218.8582,120.0864 C213.6362,118.1244 209.1122,115.2624 205.2812,111.5004 C201.4492,107.7414 198.4222,103.1114 196.2012,97.6104 C193.9782,92.1124 192.8692,85.8834 192.8692,78.9224 C192.8692,72.0774 194.0072,65.9314 196.2852,60.4864 C198.5602,55.0434 201.5582,50.4134 205.2812,46.5964 C209.0012,42.7824 213.2492,39.8624 218.0252,37.8414 C222.7992,35.8214 227.7422,34.8114 232.8522,34.8114 C238.9592,34.8114 244.2902,35.8794 248.8452,38.0104 C253.3982,40.1434 257.1752,43.0604 260.1732,46.7654 C263.1722,50.4684 265.4212,54.7914 266.9202,59.7284 C268.4202,64.6694 269.1702,69.9434 269.1702,75.5544 C269.1702,78.1384 269.0292,80.5504 268.7532,82.7944 C268.4742,85.0414 268.2252,86.6674 268.0032,87.6774 L220.5242,87.6774 C221.8572,92.7284 224.2442,96.2374 227.6872,98.1994 C231.1292,100.1644 235.1842,101.1464 239.8492,101.1464 C242.7362,101.1464 245.5392,100.7254 248.2622,99.8834 C250.9822,99.0414 253.8432,97.7784 256.8422,96.0954 L267.3722,112.2514 C262.8162,115.5094 256.5922,118.9664 251.0942,120.5914 C245.5972,122.2174 240.5152,123.0334 235.8512,123.0334" id="Fill-12"></path>
                </g>
            </g>
        </g>
    </g>
</svg>