<?xml version="1.0" encoding="UTF-8"?>
<svg width="379px" height="552px" viewBox="0 0 379 552" version="1.1" xmlns="http://www.w3.org/2000/svg" xmlns:xlink="http://www.w3.org/1999/xlink">
    <title>ethyca_icon_white</title>
    <g id="ethyca_icon_white" stroke="none" stroke-width="1" fill="none" fill-rule="evenodd">
        <path d="M39.1918716,410 L39.6393083,411.374431 C40.2180893,413.157868 40.8473873,414.974545 41.5041089,416.770989 C42.3816621,419.165766 43.3299391,421.566324 44.3200732,423.907626 C45.3001038,426.22436 46.3609617,428.572888 47.4752234,430.886731 C48.5865983,433.189012 49.7571504,435.472505 50.9536826,437.675063 C52.1559882,439.887739 53.4319044,442.10764 54.7467909,444.275513 C56.0587907,446.434714 57.4371843,448.585244 58.8430014,450.664957 C60.258922,452.763458 61.7369063,454.84317 63.2350975,456.844839 C64.7275153,458.843618 66.3022037,460.848178 67.914419,462.803599 C69.5006542,464.730115 71.1691599,466.658077 72.8679759,468.529673 C74.5451418,470.378146 76.3002482,472.222283 78.0856648,474.00861 C79.8595347,475.786266 81.7012417,477.543688 83.5573822,479.231738 C85.4135227,480.922679 87.3360571,482.590496 89.2715815,484.190386 C91.2099926,485.794612 93.2119108,487.371378 95.2224892,488.877327 C97.2287374,490.380385 99.3057096,491.858875 101.394228,493.275218 C103.487077,494.690116 105.636217,496.071774 107.779583,497.376833 C109.938825,498.693455 112.154359,499.969609 114.364118,501.172056 C116.601302,502.391846 118.881785,503.562497 121.144949,504.653659 C123.426876,505.757829 125.770867,506.821532 128.113414,507.814418 C130.457405,508.810194 132.857686,509.758277 135.247864,510.636988 C137.649589,511.520035 140.10616,512.353943 142.551185,513.117035 C145.012087,513.884462 147.517732,514.596969 150.000284,515.238659 C152.497269,515.884685 155.054875,516.475792 157.602377,517.000417 C160.14122,517.522152 162.745012,517.988967 165.337258,518.386411 C167.938164,518.785299 170.582371,519.123487 173.196267,519.389413 C175.84336,519.659675 178.529423,519.8649 181.179403,520.000753 C186.55586,520.27246 192.00304,520.271015 197.36795,519.999308 C200.0136,519.8649 202.69822,519.659675 205.3482,519.389413 C207.957766,519.123487 210.600529,518.786744 213.207208,518.386411 C215.802341,517.987522 218.40469,517.520707 220.943533,517.000417 C223.489592,516.475792 226.045754,515.884685 228.542739,515.238659 C231.026734,514.598414 233.533823,513.883016 236.000498,513.115589 C238.44408,512.351053 240.897765,511.517145 243.295159,510.636988 C245.676677,509.762613 248.078402,508.811639 250.435382,507.814418 C252.780817,506.818642 255.121921,505.756384 257.393744,504.65655 C259.659794,503.562497 261.943165,502.3904 264.176018,501.173501 C266.388665,499.969609 268.604198,498.693455 270.764884,497.376833 C272.90825,496.071774 275.057389,494.690116 277.154568,493.272328 C279.234427,491.86321 281.311399,490.383276 283.329194,488.872991 C285.338329,487.367042 287.335917,485.791721 289.271442,484.191831 C291.20841,482.590496 293.132387,480.921234 294.988528,479.231738 C295.428748,478.831405 296.314961,478.009058 296.314961,478.009058 L296.314961,478.009058 L297.371489,477.02918 L319,500.313578 L316.35868,502.750267 C314.117167,504.789513 311.80493,506.794072 309.488362,508.710472 C307.163135,510.632652 304.762854,512.523037 302.352469,514.329598 C299.923321,516.147721 297.429223,517.925376 294.938011,519.611981 C292.443912,521.300032 289.863213,522.959177 287.266637,524.540279 C284.668618,526.124271 282.002761,527.659125 279.345565,529.105819 C276.666718,530.56552 273.921477,531.974637 271.19067,533.294149 C268.448317,534.619442 265.633796,535.897041 262.822161,537.089371 C259.98166,538.293263 257.092085,539.436455 254.231377,540.487151 C251.363453,541.540737 248.410371,542.543739 245.448629,543.468698 C242.484,544.393657 239.463081,545.25358 236.471028,546.026788 C233.452996,546.807222 230.37723,547.51973 227.327444,548.145522 C224.253121,548.777096 221.121064,549.337852 218.019318,549.814784 C214.900251,550.294607 211.719121,550.699276 208.56397,551.021567 C205.38717,551.345302 202.162739,551.590995 198.978722,551.752863 C195.747075,551.917621 192.482231,552 189.272233,552 C186.060793,552 182.797392,551.917621 179.568631,551.752863 C176.384614,551.590995 173.15874,551.345302 169.980496,551.021567 C166.825346,550.699276 163.644216,550.294607 160.525149,549.814784 C157.420516,549.337852 154.289903,548.777096 151.218466,548.145522 C148.165794,547.51973 145.090027,546.805777 142.071995,546.026788 C139.079943,545.25358 136.06191,544.395102 133.101611,543.470143 C130.142756,542.545184 127.185344,541.542182 124.311646,540.487151 C121.442278,539.432119 118.554146,538.288928 115.728079,537.090817 C112.919331,535.899932 110.097593,534.620887 107.348023,533.291258 C104.621546,531.974637 101.877749,530.56552 99.1960154,529.104373 C96.5402623,527.659125 93.8758491,526.124271 91.2763864,524.541724 C88.6942439,522.967848 86.114988,521.310148 83.6093426,519.614872 C81.1094707,517.921041 78.6168154,516.14483 76.2006574,514.335379 C73.7888294,512.527373 71.3842182,510.635543 69.0546608,508.709027 C66.7251035,506.78251 64.4171963,504.780841 62.1958897,502.758939 C59.9601497,500.722584 57.7518333,498.613966 55.6301175,496.490896 C53.4809781,494.337476 51.3751391,492.1248 49.3703342,489.915015 C47.3409924,487.680661 45.3419608,485.369709 43.4266432,483.047194 C41.4997788,480.710228 39.6104414,478.303889 37.8105914,475.896105 C36.0194013,473.499883 34.2469748,471.003939 32.5394987,468.476199 C30.8392394,465.961467 29.1837237,463.375917 27.6148087,460.791813 C26.0256869,458.177358 24.4942988,455.51232 23.0596148,452.867515 C21.6148273,450.209704 20.2075668,447.462286 18.8782469,444.706197 C17.5532571,441.95878 16.2773409,439.13621 15.0836953,436.315085 C13.8972665,433.514193 12.7570247,430.622251 11.6947234,427.724527 C10.9095442,425.581224 10.1532319,423.396008 9.44743667,421.229581 L9.44743667,421.229581 L9,419.855149 L39.1918716,410 Z M321,202 L321,362.455446 C321,366.930851 320.771681,371.445287 320.319379,375.87299 C319.875747,380.245762 319.203797,384.637327 318.322313,388.926257 C317.453835,393.167485 316.359929,397.411604 315.07383,401.538634 C313.800736,405.623743 312.307995,409.691505 310.640401,413.630614 C308.987258,417.536475 307.120247,421.406198 305.09428,425.131366 C303.087099,428.827624 300.867495,432.476178 298.500495,435.975842 C296.15228,439.450931 293.606093,442.856634 290.931297,446.097545 C288.26517,449.326891 285.411187,452.468059 282.445934,455.434317 C279.486462,458.394792 276.347802,461.249743 273.113769,463.919663 C269.881181,466.59103 266.478077,469.138079 262.99694,471.492871 C259.505687,473.854891 255.856923,476.075248 252.153247,478.090337 C248.429341,480.11699 244.562374,481.984634 240.654945,483.639782 C236.715725,485.309386 232.647896,486.801188 228.571396,488.071822 C224.438538,489.361248 220.197302,490.454079 215.963291,491.321406 C211.683038,492.201743 207.292962,492.873921 202.91589,493.320594 C198.489687,493.771604 193.975335,494 189.5,494 C185.02611,494 180.513203,493.771604 176.087,493.320594 C171.707038,492.873921 167.314071,492.201743 163.033819,491.321406 C158.804143,490.454079 154.562907,489.361248 150.431495,488.073267 C146.350659,486.801188 142.28283,485.307941 138.34361,483.638337 C134.437626,481.984634 130.569214,480.11699 126.843863,478.088891 C123.143077,476.075248 119.498648,473.857782 116.007396,471.497208 C112.520478,469.136634 109.115929,466.588139 105.887676,463.921109 C102.653643,461.251188 99.5135385,458.394792 96.5526209,455.432871 C93.5888132,452.466614 90.7348297,449.326891 88.0715934,446.09899 C85.3953516,442.859525 82.8477198,439.450931 80.4966154,435.971505 C78.1325055,432.474733 75.9129011,428.826178 73.9028297,425.12703 C71.8783077,421.403307 70.0127418,417.53503 68.3595989,413.630614 C66.6920055,409.691505 65.1978187,405.622297 63.9261703,401.537188 C62.6415165,397.414495 61.5476099,393.173267 60.6776868,388.930594 C59.7962033,384.635881 59.1242527,380.242871 58.6806209,375.87299 C58.2283187,371.445287 58,366.930851 58,362.455446 L58,362.455446 L58,303.188119 L89.7912088,303.188119 L89.7912088,362.455446 C89.7912088,365.85103 89.9646154,369.281307 90.3070934,372.652317 C90.6437912,375.953941 91.1524505,379.281584 91.8186209,382.539842 C92.480456,385.757624 93.3084725,388.965287 94.2766593,392.074653 C95.2347308,395.150772 96.3633187,398.228337 97.6306319,401.222059 C98.8820495,404.175307 100.295313,407.106871 101.832852,409.934356 C103.35594,412.737267 105.037984,415.50404 106.832742,418.16095 C108.620275,420.806297 110.556648,423.392376 112.58406,425.849802 C114.610027,428.302891 116.779055,430.689485 119.033341,432.94598 C121.277511,435.190911 123.663297,437.360673 126.12856,439.397446 C128.586599,441.428436 131.173247,443.36402 133.814808,445.152158 C136.465038,446.944634 139.232319,448.627248 142.035725,450.152297 C144.860808,451.690356 147.791379,453.104099 150.743626,454.355941 C153.72333,455.619347 156.801297,456.748317 159.892269,457.71105 C163.012143,458.683901 166.220165,459.510752 169.425297,460.169921 C172.66222,460.834871 175.985846,461.343703 179.309473,461.683406 C186.07522,462.37004 192.933451,462.371485 199.693418,461.68196 C203.012709,461.343703 206.33489,460.834871 209.571813,460.169921 C212.779835,459.510752 215.990747,458.683901 219.109176,457.71105 C222.197258,456.748317 225.275225,455.619347 228.253484,454.355941 C231.205731,453.105545 234.136302,451.691802 236.96283,450.153743 C239.770571,448.625802 242.539297,446.941743 245.190973,445.149267 C247.826753,443.365465 250.410511,441.429881 252.872885,439.397446 C255.338148,437.360673 257.723934,435.189465 259.965214,432.947426 C262.2195,430.690931 264.389973,428.302891 266.41594,425.848356 C268.444797,423.390931 270.379725,420.806297 272.164368,418.163842 C273.962016,415.505485 275.64406,412.738713 277.164258,409.938693 C278.703242,407.109762 280.117951,404.176752 281.369368,401.222059 C282.636681,398.228337 283.763824,395.152218 284.723341,392.076099 C285.692973,388.962396 286.520989,385.751842 287.181379,382.534059 C287.847549,379.28303 288.356209,375.956832 288.692907,372.652317 C289.035385,369.281307 289.208791,365.85103 289.208791,362.455446 L289.208791,362.455446 L289.208791,202 L321,202 Z M379,289 L379,362.671108 C379,365.898191 378.91616,369.165722 378.754263,372.382693 C378.589475,375.59822 378.342292,378.829637 378.019944,381.985939 C377.700486,385.137907 377.292851,388.317321 376.814387,391.438953 C376.337369,394.551919 375.77651,397.687997 375.144822,400.756182 C374.513134,403.831589 373.799051,406.91133 373.025703,409.911622 C372.245127,412.935027 371.383602,415.958431 370.465703,418.895164 C369.546358,421.846342 368.543173,424.803298 367.485059,427.683694 C366.418272,430.590091 365.273427,433.483488 364.085217,436.284434 C362.88978,439.102715 361.613394,441.920996 360.28786,444.662717 C358.959435,447.415994 357.550062,450.160604 356.098769,452.822876 C354.664822,455.46059 353.131135,458.125751 351.536736,460.744687 C349.971248,463.317397 348.313247,465.901664 346.604653,468.425261 C344.890277,470.957525 343.113744,473.452231 341.322756,475.844375 L341.322756,475.844375 L340.455449,477 L315,457.953852 L315.864416,456.798227 C317.360519,454.80044 318.840723,452.723203 320.26166,450.622854 C321.67537,448.534062 323.055833,446.386043 324.36402,444.235136 C325.679435,442.071228 326.958713,439.850983 328.165714,437.636516 C329.365488,435.430716 330.537798,433.146912 331.64795,430.848662 C332.750875,428.566302 333.81188,426.223272 334.804946,423.883131 C335.796567,421.541546 336.749159,419.136401 337.632366,416.7327 C338.509791,414.343445 339.342405,411.887741 340.107081,409.434927 C340.863083,407.012448 341.578611,404.501852 342.233427,401.972477 C342.882462,399.457548 343.473676,396.899282 343.992614,394.368463 C344.515889,391.826088 344.982789,389.220153 345.38175,386.622885 C345.782157,384.005394 346.118961,381.359012 346.38349,378.7603 C346.650909,376.129808 346.857617,373.441535 346.99205,370.766263 C347.129373,368.096768 347.198758,365.373826 347.198758,362.671108 L347.198758,362.671108 L347.198758,289 L379,289 Z M119.729765,166 L150.011765,175.409762 L149.583735,176.787821 C149.177324,178.099502 148.831441,179.448702 148.553294,180.799344 C148.275147,182.162973 148.061853,183.559791 147.920618,184.950837 C147.7765,186.376514 147.705882,187.823837 147.705882,189.246629 L147.705882,189.246629 L147.705882,362.40732 C147.705882,363.831555 147.777941,365.28032 147.922059,366.714656 C148.061853,368.095601 148.275147,369.489533 148.553294,370.856048 C148.831441,372.205247 149.177324,373.554446 149.583735,374.864685 C149.9815,376.146063 150.452765,377.433213 150.983118,378.692947 C151.509147,379.935365 152.100029,381.163352 152.739912,382.339392 C153.379794,383.519761 154.083088,384.681371 154.833941,385.793919 C155.577588,386.896366 156.390412,387.982941 157.247912,389.023339 C158.095324,390.052194 159.001824,391.050745 159.944353,391.994463 C160.891206,392.94251 161.889941,393.851596 162.916059,394.698633 C163.943618,395.55 165.027382,396.362405 166.139971,397.114205 C167.259765,397.870334 168.419912,398.575958 169.587265,399.210875 C170.771912,399.855893 171.998353,400.44752 173.230559,400.969884 C174.480059,401.49802 175.769912,401.971322 177.065529,402.37536 C178.371235,402.782284 179.715853,403.12716 181.061912,403.402772 C182.418059,403.682712 183.813118,403.894832 185.209618,404.036246 C188.015588,404.321959 190.982971,404.321959 193.788941,404.036246 C195.184,403.894832 196.581941,403.681269 197.942412,403.402772 C199.287029,403.12716 200.628765,402.782284 201.930147,402.37536 C203.227206,401.971322 204.517059,401.499463 205.759353,400.97277 C206.997324,400.448963 208.226647,399.855893 209.411294,399.210875 C210.581529,398.575958 211.738794,397.871777 212.854265,397.117091 C213.968294,396.363848 215.050618,395.552886 216.070971,394.707291 C217.107176,393.853039 218.107353,392.94251 219.048441,391.998792 C219.993853,391.055074 220.904676,390.050751 221.756412,389.016124 C222.611029,387.980055 223.422412,386.896366 224.166059,385.792476 C224.914029,384.682814 225.617324,383.522647 226.255765,382.345164 C226.898529,381.163352 227.490853,379.933922 228.015441,378.691504 C228.545794,377.433213 229.0185,376.143177 229.417706,374.856027 C229.822676,373.550117 230.167118,372.203804 230.445265,370.854605 C230.723412,369.490976 230.938147,368.092715 231.077941,366.703112 C231.222059,365.275991 231.294118,363.830112 231.294118,362.40732 L231.294118,362.40732 L231.294118,332.104451 L263,332.104451 L263,362.40732 C263,364.905142 262.873176,367.427495 262.622412,369.902229 C262.371647,372.359647 261.996941,374.822838 261.5055,377.223979 C261.022706,379.590489 260.413088,381.962771 259.696824,384.274447 C258.984882,386.564478 258.150441,388.845851 257.216559,391.056517 C256.297088,393.235438 255.255118,395.402814 254.118029,397.499484 C252.995353,399.567294 251.757382,401.607687 250.437265,403.564387 C249.133,405.496556 247.713441,407.399864 246.214618,409.219479 C244.712912,411.039094 243.117529,412.796661 241.468824,414.447446 C239.820118,416.099673 238.064765,417.695625 236.254647,419.192009 C234.451735,420.682622 232.550824,422.106856 230.600912,423.422867 C228.649559,424.744649 226.610294,425.985624 224.543647,427.108273 C222.453941,428.245352 220.289294,429.288636 218.105912,430.212152 C215.913882,431.14144 213.639706,431.97549 211.349676,432.688329 C209.043794,433.40694 206.671618,434.017327 204.299441,434.503616 C201.892676,434.995676 199.436912,435.370855 196.998441,435.61905 C194.521059,435.871574 191.999,436 189.5,436 C186.999559,436 184.4775,435.871574 182.001559,435.620493 C179.560206,435.370855 177.105882,434.995676 174.706324,434.505058 C172.331265,434.01877 169.956206,433.40694 167.647441,432.688329 C165.358853,431.974047 163.083235,431.139997 160.882559,430.207823 C158.706382,429.287193 156.544618,428.245352 154.454912,427.108273 C152.389706,425.985624 150.350441,424.744649 148.391882,423.419981 C146.446294,422.10397 144.5425,420.679736 142.735265,419.184794 C140.932353,417.694182 139.179882,416.099673 137.523971,414.441674 C135.878147,412.793775 134.285647,411.039094 132.791147,409.226694 C131.288,407.40275 129.865559,405.496556 128.559853,403.562944 C127.239735,401.606244 126.001765,399.564408 124.879088,397.492269 C123.744882,395.402814 122.702912,393.236881 121.782,391.055074 C120.848118,388.845851 120.015118,386.567364 119.306059,384.284548 C118.586912,381.9671 117.977294,379.591932 117.493059,377.223979 C117.001618,374.821395 116.626912,372.362533 116.377588,369.913773 C116.126824,367.431824 116,364.906585 116,362.40732 L116,362.40732 L116,189.246629 C116,186.748807 116.125382,184.226454 116.376147,181.750277 C116.626912,179.292858 117.001618,176.831111 117.493059,174.429969 C117.977294,172.06346 118.586912,169.691178 119.303176,167.378059 L119.303176,167.378059 L119.729765,166 Z M179.719757,0.245411111 C186.176834,-0.0824777778 192.719234,-0.0824777778 199.167634,0.245411111 C202.357849,0.407188889 205.591449,0.652744444 208.77588,0.9763 C211.935726,1.29841111 215.124495,1.7043 218.249634,2.18385556 C221.360311,2.65907778 224.497018,3.22096667 227.574434,3.85074444 C230.631603,4.47763333 233.714803,5.18974444 236.738711,5.9683 C239.736588,6.74107778 242.760495,7.60052222 245.726557,8.52352222 C248.682495,9.44507778 251.642772,10.4475222 254.532188,11.5048556 C257.404249,12.5578556 260.299449,13.7004111 263.133911,14.8993 C265.948126,16.0909667 268.773911,17.3693 271.528834,18.6967444 C274.262065,20.0140778 277.011203,21.4209667 279.698157,22.8813 L279.698157,22.8813 L280.969326,23.5703 L265.765911,51.4870778 L264.496188,50.7966333 C262.257542,49.5804111 259.972618,48.4104111 257.706495,47.3184111 C255.420126,46.2163 253.071572,45.1531889 250.724465,44.1594111 C248.373018,43.1641889 245.968065,42.2151889 243.573234,41.3398556 C241.171172,40.4587444 238.709818,39.6253 236.258588,38.8611889 C233.792895,38.0941889 231.280926,37.3806333 228.794988,36.7407444 C226.291695,36.0950778 223.730557,35.5028556 221.178095,34.9799667 C218.632865,34.4585222 216.025449,33.9919667 213.428157,33.5933 C210.822188,33.1946333 208.172834,32.8580778 205.552403,32.5923 C202.901603,32.3221889 200.210311,32.1156333 197.553726,31.9813 C192.168249,31.7097444 186.709018,31.7097444 181.333665,31.9813 C178.682865,32.1156333 175.994465,32.3221889 173.339326,32.5908556 C170.723234,32.8566333 168.075326,33.1946333 165.465018,33.5933 C162.864834,33.9919667 160.255972,34.4585222 157.712188,34.9799667 C155.162618,35.5028556 152.600034,36.0950778 150.099634,36.7393 C147.610803,37.3806333 145.098834,38.0941889 142.627357,38.8626333 C140.177572,39.6253 137.719111,40.4587444 135.318495,41.3398556 C132.932342,42.2137444 130.525942,43.1627444 128.164372,44.1608556 C125.814372,45.1560778 123.468711,46.2177444 121.191018,47.3155222 C118.920557,48.4089667 116.634188,49.5804111 114.395542,50.7966333 C112.180034,51.9998556 109.960188,53.2767444 107.795295,54.5926333 C105.646311,55.8969667 103.492988,57.2778556 101.393172,58.6948556 C99.3092646,60.1017444 97.2268031,61.5823 95.2065262,63.0917444 C93.19348,64.5968556 91.1905569,66.1713 89.2527108,67.7703 C87.3032954,69.3765222 85.3755723,71.0448556 83.5244954,72.7276333 C81.6618492,74.4161889 79.8180031,76.1726333 78.0421262,77.9478556 C76.2561262,79.7317444 74.4976031,81.5734111 72.81428,83.4237444 C71.1136031,85.2928556 69.4432954,87.2168556 67.8539723,89.1423 C66.23428,91.1024111 64.6579723,93.1058556 63.1669877,95.0963 C61.6687723,97.0939667 60.1879108,99.1725222 58.7634492,101.274189 C57.3505569,103.362856 55.96948,105.512189 54.6607108,107.662967 C53.3403723,109.831078 52.0619723,112.049744 50.8573262,114.259744 C49.6584646,116.463967 48.4841877,118.747633 47.3735415,121.047189 C46.2585569,123.353967 45.1956338,125.6983 44.2151415,128.0123 C43.2216338,130.353744 42.2700646,132.758744 41.3864646,135.1623 C40.5072031,137.552856 39.6742185,140.006967 38.9106492,142.459633 C38.1543108,144.881967 37.4370185,147.392411 36.7819108,149.923078 C36.1340338,152.436411 35.5425569,154.994522 35.0219415,157.525189 C34.49988,160.067411 34.0327723,162.673189 33.6336338,165.271744 C33.2330492,167.889078 32.8960954,170.533856 32.6314492,173.132411 C32.3639108,175.762744 32.1571108,178.4523 32.0211723,181.125967 C31.8852338,183.7953 31.8158185,186.518078 31.8158185,189.220633 L31.8158185,189.220633 L31.8158185,362.555411 C31.8158185,365.255078 31.8852338,367.980744 32.0211723,370.6573 C32.1585569,373.332411 32.3639108,376.017633 32.6314492,378.634967 C32.7919723,380.223856 32.97708,381.793967 33.18388,383.356856 L33.18388,383.356856 L33.3747723,384.789744 L1.83126462,388.946856 L1.64181846,387.513967 C1.39452615,385.637633 1.17181846,383.752633 0.978033846,381.858967 C0.656987692,378.707189 0.411141538,375.481744 0.24628,372.273633 C0.0828646154,369.049633 0.000433846154,365.780856 0.000433846154,362.555411 L0.000433846154,362.555411 L0.000433846154,189.220633 C0.000433846154,185.993744 0.0828646154,182.726411 0.24628,179.509633 C0.411141538,176.2943 0.658433846,173.064522 0.97948,169.906967 C1.30052615,166.755189 1.70689538,163.575967 2.18557231,160.455967 C2.66424923,157.341744 3.22535692,154.205856 3.85732615,151.137856 C4.48784923,148.062633 5.20224923,144.983078 5.97883385,141.984411 C6.75831077,138.959744 7.61877231,135.936522 8.53852615,132.999967 C9.45828,130.048967 10.4619108,127.092189 11.5204954,124.211967 C12.5906492,121.301411 13.7345569,118.408189 14.9218492,115.611744 C16.1149262,112.797967 17.3933262,109.979856 18.7208954,107.233967 C20.0499108,104.483744 21.4599108,101.737856 22.9104031,99.0743 C24.3464338,96.4381889 25.8808031,93.7731889 27.4759108,91.1544111 C29.0420954,88.5804111 30.7008338,85.9963 32.4101877,83.4728556 C34.12388,80.9421889 35.9026492,78.4461889 37.6944338,76.0556333 C39.4905569,73.6564111 41.3835723,71.2528556 43.3185262,68.9114111 C45.2375723,66.5901889 47.2404954,64.2805222 49.2723415,62.0488556 C51.2767108,59.8460778 53.3866492,57.6360778 55.5428646,55.4795222 C57.6672646,53.3576333 59.87988,51.2501889 62.1214185,49.2135222 C64.3615108,47.1811889 66.6724646,45.1791889 68.9964338,43.2638556 C71.3261877,41.3441889 73.7311415,39.4548556 76.1462185,37.6478556 C78.5800954,35.8307444 81.0776031,34.0555222 83.5751108,32.3684111 C86.0856338,30.6726333 88.6713569,29.0158556 91.2599723,27.4428556 C93.8644954,25.8597444 96.5355415,24.3257444 99.1964646,22.8798556 C101.881972,21.4209667 104.631111,20.0126333 107.36868,18.6938556 C110.114926,17.3707444 112.934926,16.0938556 115.75348,14.9007444 C118.596618,13.6989667 121.490372,12.5564111 124.359542,11.5048556 C127.248957,10.4475222 130.21068,9.44507778 133.160834,8.52496667 C136.131234,7.60052222 139.156588,6.74107778 142.155911,5.9683 C145.178372,5.18974444 148.260126,4.47763333 151.317295,3.85074444 C154.391818,3.22096667 157.528526,2.65907778 160.643542,2.18241111 C163.774465,1.70285556 166.961788,1.29841111 170.117295,0.9763 C173.30028,0.652744444 176.530988,0.407188889 179.719757,0.245411111 Z M189,173 C197.821818,173 205,180.123028 205,188.880282 L205,188.880282 L205,362.119718 C205,370.875528 197.821818,378 189,378 C180.178182,378 173,370.875528 173,362.119718 L173,362.119718 L173,188.880282 C173,180.123028 180.178182,173 189,173 Z M181.585063,115.380914 C186.587034,114.873029 191.658537,114.873029 196.657611,115.380914 C199.111517,115.629792 201.57991,116.006004 203.991807,116.497973 C206.37763,116.987047 208.76635,117.599114 211.086986,118.321151 C213.387343,119.035953 215.674662,119.872299 217.885205,120.808487 C220.072572,121.730205 222.245452,122.776362 224.345904,123.915125 C226.423177,125.042312 228.472928,126.286704 230.440109,127.61502 C232.39715,128.933207 234.309285,130.36281 236.125813,131.861868 C237.937996,133.355138 239.700926,134.955483 241.363904,136.616601 C243.019639,138.270484 244.620328,140.028549 246.122512,141.84594 C247.633389,143.676353 249.063144,145.586349 250.374115,147.526732 C251.701021,149.487372 252.946806,151.536277 254.075255,153.614122 C255.215293,155.707883 256.262622,157.879781 257.18682,160.067595 C258.126953,162.284348 258.964237,164.569109 259.676941,166.85821 C260.398338,169.182039 261.012539,171.563747 261.499264,173.936773 C261.993232,176.345973 262.368416,178.813051 262.619022,181.267107 C262.871076,183.757338 263,186.28953 263,188.795677 L263,188.795677 L263,306 L231.131085,306 L231.131085,188.795677 C231.131085,187.36752 231.057207,185.913318 230.913797,184.475033 C230.773284,183.091733 230.558893,181.693963 230.277867,180.323685 C229.999739,178.969324 229.652078,177.61641 229.242128,176.302564 C228.843766,175.019104 228.370078,173.72841 227.836998,172.465207 C227.306815,171.219369 226.712895,169.988 226.071171,168.808722 C225.427998,167.625103 224.719639,166.458848 223.966374,165.344683 C223.217454,164.237753 222.4019,163.148187 221.539991,162.104924 C220.688221,161.074684 219.775611,160.071935 218.829684,159.127066 C217.877962,158.176409 216.872643,157.263373 215.841249,156.414003 C214.808407,155.560292 213.719069,154.747097 212.602209,153.993227 C211.476656,153.23357 210.310544,152.526003 209.13574,151.889337 C207.945001,151.242543 206.713702,150.650734 205.473712,150.126932 C204.219235,149.597342 202.921301,149.122737 201.62047,148.717586 C200.30805,148.309541 198.956519,147.962269 197.60209,147.685898 C196.238969,147.406634 194.836737,147.19393 193.434505,147.05068 C190.612657,146.76418 187.631465,146.765627 184.809618,147.05068 C183.408834,147.19393 182.003705,147.406634 180.636238,147.685898 C179.284707,147.963716 177.934624,148.309541 176.627998,148.716139 C175.32427,149.122737 174.027784,149.595895 172.779102,150.122591 C171.533318,150.649287 170.299121,151.242543 169.108383,151.889337 C167.93213,152.52745 166.767466,153.23357 165.647708,153.988886 C164.526502,154.74565 163.440062,155.557399 162.413014,156.405321 L162.413014,156.405321 L161.296153,157.328486 L141,132.783586 L142.118309,131.861868 C143.936286,130.36281 145.849869,128.93176 147.808359,127.610679 C149.771194,126.285257 151.820945,125.042312 153.898219,123.915125 C155.99867,122.776362 158.174448,121.728758 160.367609,120.804146 C162.572358,119.870853 164.858228,119.035953 167.160033,118.319704 C169.476324,117.600561 171.862147,116.988494 174.245072,116.49942 C176.664213,116.006004 179.132605,115.629792 181.585063,115.380914 Z M176.068863,58.6811651 C184.966362,57.7736688 193.99101,57.7722214 202.894289,58.6811651 C205.12372,58.9098483 207.371936,59.1964261 209.57247,59.5365563 L209.57247,59.5365563 L211,59.7580027 L206.158246,91.2280049 L204.730716,91.0065585 C203.053224,90.7489279 201.351169,90.5303762 199.670787,90.3581401 C192.908803,89.6706429 186.050013,89.6720903 179.290919,90.3595874 C175.972056,90.6997176 172.648859,91.2077418 169.413799,91.8735286 C166.204746,92.5335259 162.997139,93.3614172 159.876223,94.3354921 C156.787094,95.3008829 153.712415,96.431273 150.733096,97.6948204 C147.78123,98.946789 144.852482,100.362309 142.026319,101.902303 C139.21894,103.432165 136.450572,105.118343 133.799239,106.914519 C131.165244,108.699117 128.580374,110.635688 126.116874,112.673575 C123.653373,114.711461 121.267896,116.883952 119.026905,119.130259 C116.77291,121.389591 114.602718,123.780634 112.577012,126.238256 C110.548417,128.698772 108.613739,131.286656 106.829326,133.932435 C105.03191,136.594134 103.348638,139.364386 101.830082,142.167927 C100.289852,145.000415 98.8767707,147.935666 97.6255147,150.895523 C96.3583651,153.89301 95.2299229,156.974445 94.2719752,160.052985 C93.2966891,163.18363 92.4716692,166.396775 91.8142541,169.605577 C91.1481698,172.862143 90.6395762,176.191077 90.3029218,179.501195 C89.960488,182.876444 89.7871038,186.311035 89.7871038,189.710889 L89.7871038,189.710889 L89.7871038,278 L58,278 L58,189.710889 C58,185.229855 58.2282892,180.709742 58.6790881,176.276471 C59.1226627,171.911226 59.7945265,167.514139 60.6758962,163.208235 C61.5457069,158.960226 62.6394723,154.71077 63.9239603,150.57855 C65.1983342,146.488304 66.6894383,142.415426 68.3582612,138.471363 C70.0111906,134.56059 71.8779606,130.686001 73.903666,126.9547 C75.9105881,123.255242 78.1284611,119.602099 80.4966003,116.096587 C82.8416217,112.62147 85.3889246,109.211484 88.0633759,105.963602 C90.7306029,102.731642 93.5842179,99.5865232 96.5476429,96.615088 C99.5067333,93.6508897 102.646432,90.7923488 105.878603,88.1190703 C109.112218,85.4457918 112.514883,82.8940918 115.994126,80.5363384 C119.486373,78.1713481 123.134666,75.9496467 126.836418,73.9320234 C130.559844,71.9013739 134.427757,70.0328289 138.333236,68.3755989 C142.273392,66.7024479 146.339251,65.2102172 150.41667,63.9365382 C154.548993,62.6469382 158.789682,61.5512848 163.021701,60.6828674 C167.302846,59.8014236 171.692356,59.1284001 176.068863,58.6811651 Z M309.171396,42 L310.283307,42.920568 C312.594988,44.8398653 314.899467,46.8445613 317.129051,48.8811008 C319.360075,50.9205352 321.563733,53.0323413 323.680974,55.1600692 C325.832781,57.3239829 327.934178,59.5400042 329.927553,61.744446 C331.952614,63.9821789 333.947429,66.2966257 335.858707,68.622652 C337.781507,70.9646001 339.665418,73.3731301 341.461472,75.7860025 C343.250324,78.1844005 345.019012,80.6841188 346.722886,83.2171282 C348.419559,85.7356632 350.071583,88.323675 351.637189,90.9116869 C353.224399,93.537332 354.753997,96.2078476 356.182774,98.847967 C357.623074,101.509798 359.027366,104.259922 360.355322,107.021626 C361.678957,109.778988 362.952182,112.605826 364.14187,115.425428 C365.322915,118.226212 366.462192,121.12108 367.523693,124.028975 C368.580873,126.920948 369.580441,129.888187 370.499352,132.849637 C371.409621,135.783586 372.26804,138.811617 373.047242,141.843992 C373.817802,144.850312 374.52931,147.936241 375.158721,151.017828 C375.786692,154.093625 376.346968,157.233109 376.820827,160.346539 C377.299006,163.481681 377.705171,166.673273 378.023477,169.833021 C378.344664,172.985532 378.590955,176.217652 378.755149,179.441087 C378.916463,182.67176 379,185.947303 379,189.179423 L379,189.179423 L379,263 L347.313409,263 L347.313409,189.179423 C347.313409,186.472721 347.244275,183.742861 347.107446,181.060766 C346.972058,178.380118 346.767536,175.689339 346.49964,173.065141 C346.237505,170.458313 345.900475,167.802271 345.501512,165.170836 C345.10543,162.575587 344.638773,159.967312 344.118825,157.419828 C343.601757,154.882476 343.012675,152.319071 342.36454,149.799088 C341.712084,147.261737 341.000576,144.747544 340.25018,142.328882 C339.485381,139.866797 338.654328,137.403264 337.778626,135.003419 C336.900043,132.602126 335.955207,130.196491 334.967161,127.8502 C333.989198,125.529964 332.930578,123.179331 331.818666,120.861989 C330.709636,118.556227 329.541553,116.267834 328.347544,114.063392 C327.146334,111.844476 325.87311,109.621218 324.560997,107.454409 C323.257526,105.297733 321.882039,103.145398 320.474867,101.055304 C319.061933,98.9536297 317.587066,96.8707723 316.092035,94.8646289 C314.602765,92.8642752 313.031399,90.855237 311.422584,88.8968589 C309.838254,86.9674295 308.174708,85.0380001 306.479476,83.1621257 C304.805848,81.3123052 303.053003,79.4653795 301.272793,77.6749037 C299.502665,75.89456 297.664842,74.1359278 295.812617,72.4438776 C293.960392,70.7503799 292.041913,69.0800411 290.110471,67.4777318 L290.110471,67.4777318 L289,66.5571638 L309.171396,42 Z M244.455512,69 L245.755895,69.6169234 C248.066089,70.7088488 250.371967,71.8862166 252.615991,73.1142706 C256.297054,75.1301329 259.926331,77.3516363 263.403129,79.7165092 C266.872735,82.0813821 270.261787,84.634518 273.476782,87.3078526 C276.694655,89.9826354 279.821904,92.8427848 282.769343,95.8115475 C285.719659,98.7817584 288.559212,101.928647 291.213202,105.160978 C293.877261,108.409239 296.411857,111.822592 298.75082,115.306905 C301.105607,118.810045 303.313669,122.465244 305.316029,126.171128 C307.329896,129.901632 309.18697,133.776954 310.834026,137.68848 C312.494028,141.634762 313.979974,145.71138 315.247273,149.803928 C316.526078,153.934128 317.613567,158.183079 318.480968,162.433479 C318.990189,164.937376 319.431802,167.48472 319.792859,170.003099 L319.792859,170.003099 L320,171.436795 L288.680044,176 L288.47578,174.567753 C288.199593,172.661952 287.865866,170.732981 287.480354,168.834421 C286.825847,165.628157 286.003039,162.413204 285.033505,159.283694 C284.081234,156.201973 282.957783,153.118805 281.696239,150.11963 C280.450518,147.161005 279.043688,144.224102 277.513148,141.391468 C275.996994,138.583453 274.322607,135.811642 272.536018,133.149893 C270.755184,130.499729 268.827625,127.908941 266.809442,125.44704 C264.794136,122.989484 262.634982,120.598544 260.38952,118.33794 C258.155566,116.088921 255.78064,113.915207 253.328037,111.874726 C250.876873,109.838589 248.301999,107.898032 245.675341,106.109534 C243.040051,104.315242 240.286806,102.631013 237.491846,101.10029 C235.784374,100.164767 234.038063,99.2755867 232.301822,98.4544704 L232.301822,98.4544704 L231,97.8389952 L244.455512,69 Z" id="Combined-Shape" fill="#FFFFFF"></path>
    </g>
</svg>