<svg width="437" height="84" viewBox="0 0 437 84" fill="none" xmlns="http://www.w3.org/2000/svg">
<path d="M43.2607 20.7602V23.8921C40.472 21.8328 37.0826 20.7602 33.6503 20.7602C29.0596 20.8031 24.6405 22.7337 21.5515 26.0802C14.8585 33.3738 14.8585 44.5716 21.5515 51.8652C24.6834 55.2546 29.0596 57.1853 33.6503 57.1853C37.1255 57.1853 40.472 56.0698 43.2607 54.0533V57.2711H54.5443V20.7602H43.2607ZM35.8813 46.3307C31.8054 46.3307 28.5448 43.0271 28.5448 38.9513C28.5448 34.8754 31.8483 31.6148 35.9242 31.6148C40 31.6148 43.2607 34.9183 43.2607 38.9942C43.2178 43.0271 39.9571 46.3307 35.8813 46.3307Z" fill="#F9F9F9"/>
<path d="M13.3998 20.8031H2.11617V57.314H13.3998V20.8031Z" fill="#F9F9F9"/>
<path d="M7.73653 15.6976C3.6607 15.6976 0.400024 12.394 0.400024 8.31814C0.400024 4.2423 3.7036 0.981632 7.77944 0.981632C11.8553 0.981632 15.1159 4.2852 15.1159 8.31814C15.1159 12.394 11.8124 15.6976 7.73653 15.6976Z" fill="#F9F9F9"/>
<path d="M91.2513 26.0854C88.1194 22.696 83.7432 20.7653 79.1096 20.7653C75.6773 20.7653 72.3308 21.8808 69.5421 23.8973V0H58.2585V57.3192H69.4992V54.1443C72.2879 56.1607 75.6344 57.2333 79.0667 57.2333C83.7003 57.1904 88.0764 55.2598 91.2084 51.8704C97.9443 44.5768 97.9443 33.379 91.2513 26.0854ZM76.8786 46.3358C72.8028 46.3358 69.5421 43.0323 69.5421 38.9564C69.5421 34.8806 72.8457 31.6199 76.9215 31.6199C80.9974 31.6199 84.258 34.9235 84.258 38.9993C84.2151 43.0323 80.9116 46.3358 76.8786 46.3358Z" fill="#F9F9F9"/>
<path d="M100.408 50.192C100.408 46.1162 103.712 42.8126 107.788 42.8126C111.863 42.8126 115.167 46.1162 115.167 50.192C115.167 54.2678 111.863 57.5714 107.788 57.5714C103.712 57.5714 100.408 54.2678 100.408 50.192Z" fill="#F9F9F9"/>
<path d="M13.7001 67.1818H9.32397V83.6139H6.53523V67.1818H2.15907V64.5647H13.743L13.7001 67.1818Z" fill="#F9F9F9"/>
<path d="M26.3996 67.1818H18.7627V71.8583H26.1422V74.4754H18.7627V80.9968H26.3996V83.6139H15.974V64.5647H26.3996V67.1818Z" fill="#F9F9F9"/>
<path d="M44.1617 68.898L43.7326 68.5118C40.7723 65.9376 36.2674 66.2379 33.6932 69.1983C32.4919 70.5283 31.8912 72.2873 31.9341 74.0893C31.8054 77.9506 34.8087 81.2113 38.7129 81.3829C40.5578 81.4687 42.3597 80.7822 43.7326 79.538L44.1617 79.1519V82.5842L44.033 82.67C42.5313 83.5281 40.8152 84 39.0561 84C33.5645 83.9571 29.1883 79.4522 29.2312 74.0035C29.2741 68.5118 33.779 64.1357 39.2277 64.1786C40.901 64.1786 42.5742 64.6076 44.033 65.4657L44.1617 65.5515V68.898Z" fill="#F9F9F9"/>
<path d="M61.4089 83.571H58.6202V74.6899H50.2969V83.571H47.5081V64.5647H50.2969V72.0299H58.6202V64.5647H61.4089V83.571Z" fill="#F9F9F9"/>
<path d="M81.9168 83.571H73.5077V64.5647H76.2964V80.9968H81.9168V83.571Z" fill="#F9F9F9"/>
<path d="M92.514 63.4492L83.2897 83.6139H86.293L88.3952 78.9803H96.5469L98.6492 83.6139H101.652L92.514 63.4492ZM89.5965 76.3203L92.514 69.6702L95.4314 76.3203H89.5965Z" fill="#F9F9F9"/>
<path d="M111.778 73.3599C112.807 72.5019 113.451 71.2577 113.451 69.9276C113.451 66.3237 111.134 64.6076 106.415 64.6076H103.926V83.6139H108.474C111.692 83.6139 115.167 82.1981 115.167 78.208C115.167 76.0199 113.794 74.0893 111.778 73.3599ZM106.715 67.1389H107.101C109.332 67.1389 110.791 67.6109 110.791 69.9276C110.791 72.2444 109.332 72.7593 107.058 72.7593H106.715V67.1389ZM108.26 81.0397H106.715V75.119H107.873C109.89 75.119 112.335 75.5909 112.335 78.0364C112.378 80.01 110.962 81.0397 108.26 81.0397Z" fill="#F9F9F9"/>
<path d="M221 24.9995H239.592V30.0791H226.456V36.4601H239.387V41.5397H226.456V53.0003H221V24.9995ZM243.716 52.9985H249.172V24.9995H243.716V53.0003V52.9985ZM276.993 31.4561C278.128 33.5459 278.704 36.0839 278.704 38.9981C278.704 41.9123 278.128 44.4503 276.993 46.5401C275.841 48.6605 274.185 50.2877 272.075 51.3803C270.001 52.4531 267.557 52.9985 264.807 52.9985H254.946V24.9995H264.807C267.555 24.9995 270.001 25.5431 272.075 26.6159C274.186 27.7103 275.841 29.3375 276.993 31.4561ZM269.404 46.8983C270.61 46.2305 271.504 45.2711 272.136 43.9679C272.784 42.6287 273.114 40.9583 273.114 38.9981C273.114 37.0379 272.784 35.4017 272.136 34.0625C271.503 32.7557 270.608 31.7909 269.398 31.1105C268.176 30.4247 266.666 30.0755 264.911 30.0755H260.404V47.9171H264.911C266.67 47.9171 268.182 47.5733 269.404 46.8965V46.8983ZM288.642 41.1275H301.881V36.0479H288.642V30.0773H302.121V24.9977H283.186V52.9985H302.428V47.9189H288.642V41.1275ZM326.527 40.5911C325.9 39.5381 324.948 38.6597 323.697 37.9829C322.524 37.3475 320.972 36.8201 319.093 36.4151L315.844 35.6969C314.472 35.3927 313.407 35.0831 312.678 34.7753C312.053 34.5125 311.594 34.2011 311.313 33.8447C311.07 33.5387 310.948 33.0869 310.948 32.4983C310.948 31.9673 311.126 31.5047 311.49 31.0835C311.902 30.6101 312.478 30.2321 313.203 29.9621C313.979 29.6741 314.863 29.5283 315.831 29.5283C317.273 29.5283 318.481 29.8271 319.42 30.4193C320.313 30.9809 320.905 31.8359 321.228 33.0329L321.427 33.7727H326.979L326.77 32.5973C326.491 31.0223 325.85 29.6075 324.869 28.3961C323.89 27.1883 322.601 26.2433 321.04 25.5899C319.509 24.9473 317.755 24.6233 315.831 24.6233C313.907 24.6233 312.237 24.9689 310.69 25.6493C309.112 26.3441 307.839 27.3251 306.907 28.5635C305.944 29.8415 305.456 31.2815 305.456 32.8421C305.456 34.9787 306.201 36.7265 307.672 38.0369C309.049 39.2645 310.926 40.1483 313.254 40.6613L316.51 41.3813C318.049 41.7107 319.231 42.0293 320.025 42.3299C320.702 42.5873 321.213 42.9185 321.543 43.3163C321.832 43.6655 321.98 44.1803 321.98 44.8499C321.98 45.5195 321.782 46.1243 321.373 46.6445C320.945 47.1881 320.283 47.6273 319.404 47.9477C318.461 48.2933 317.282 48.4679 315.9 48.4679C314.852 48.4679 313.907 48.2933 313.088 47.9477C312.3 47.6147 311.671 47.1323 311.171 46.4699C310.674 45.8129 310.352 44.9903 310.219 44.0273L310.098 43.1651H304.477L304.648 44.3117C304.921 46.1585 305.578 47.7839 306.599 49.1429C307.621 50.5055 308.953 51.5657 310.561 52.2929C312.145 53.0093 313.941 53.3729 315.9 53.3729C318.121 53.3729 320.115 53.0075 321.831 52.2857C323.589 51.5441 324.979 50.4893 325.96 49.1501C326.962 47.7821 327.47 46.2089 327.47 44.4701C327.47 42.9491 327.151 41.6441 326.525 40.5893L326.527 40.5911Z" fill="#F9F9F9"/>
<path d="M203 57H167V21H203V57Z" fill="#F9F9F9"/>
<path d="M423.202 53.444C416.135 53.444 410.215 47.82 410.215 38.94C410.215 30.208 415.839 24.436 423.794 24.436C430.491 24.436 435.005 27.84 436.559 33.649H431.564C430.417 30.467 427.901 28.321 423.794 28.321C418.577 28.321 415.173 32.613 415.173 38.94C415.173 45.304 418.651 49.559 423.979 49.559C428.789 49.559 432.119 46.636 432.23 41.456H422.684V37.497H436.966V53H432.933V46.081C431.823 49.707 428.937 53.444 423.202 53.444Z" fill="#F9F9F9"/>
<path d="M380.415 53V24.88H389.924L400.913 52.445V24.88H405.686V53H396.177L385.188 25.435V53H380.415Z" fill="#F9F9F9"/>
<path d="M348.913 53L358.644 24.88H367.783L377.514 53H372.482L369.781 44.934H356.646L353.945 53H348.913ZM358.015 40.864H368.412L363.232 25.472L358.015 40.864Z" fill="#F9F9F9"/>
<path d="M331.219 53V24.88H335.992V48.893H348.535V53H331.219Z" fill="#F9F9F9"/>
<path fill-rule="evenodd" clip-rule="evenodd" d="M141 58L141 21L142 21L142 58L141 58Z" fill="#F9F9F9"/>
</svg>
